<mxfile host="app.diagrams.net" modified="2022-10-15T08:35:34.024Z" agent="5.0 (X11; Linux x86_64) AppleWebKit/537.36 (KHTML, like Gecko) Chrome/106.0.0.0 Safari/537.36" etag="NNYw1rYtg_pGMi2uWPjV" version="20.3.0" type="github">
  <diagram id="a7nS-2-eTZw8AXvaWi5-" name="Page-1">
    <mxGraphModel dx="1422" dy="1961" grid="1" gridSize="10" guides="1" tooltips="1" connect="1" arrows="1" fold="1" page="1" pageScale="1" pageWidth="827" pageHeight="1169" math="0" shadow="0">
      <root>
        <mxCell id="0" />
        <mxCell id="1" parent="0" />
        <mxCell id="jw04TF_Y39lqMl5QUkGy-3" value="MySQl" style="shape=cylinder3;whiteSpace=wrap;html=1;boundedLbl=1;backgroundOutline=1;size=15;" vertex="1" parent="1">
          <mxGeometry x="200" y="1010" width="60" height="80" as="geometry" />
        </mxCell>
        <mxCell id="jw04TF_Y39lqMl5QUkGy-4" value="Redis&lt;br&gt;Cahce" style="shape=cylinder3;whiteSpace=wrap;html=1;boundedLbl=1;backgroundOutline=1;size=15;" vertex="1" parent="1">
          <mxGeometry x="540" y="1060" width="60" height="80" as="geometry" />
        </mxCell>
        <mxCell id="jw04TF_Y39lqMl5QUkGy-9" value="// Store temp data as:&lt;br&gt;status: online or not&lt;br&gt;refreshToken:" style="rounded=0;whiteSpace=wrap;html=1;" vertex="1" parent="1">
          <mxGeometry x="700" y="1050" width="120" height="60" as="geometry" />
        </mxCell>
        <mxCell id="jw04TF_Y39lqMl5QUkGy-10" value="" style="endArrow=classic;html=1;rounded=0;entryX=0;entryY=0.5;entryDx=0;entryDy=0;exitX=1;exitY=0.5;exitDx=0;exitDy=0;exitPerimeter=0;" edge="1" parent="1" source="jw04TF_Y39lqMl5QUkGy-4" target="jw04TF_Y39lqMl5QUkGy-9">
          <mxGeometry width="50" height="50" relative="1" as="geometry">
            <mxPoint x="570" y="820" as="sourcePoint" />
            <mxPoint x="440" y="640" as="targetPoint" />
          </mxGeometry>
        </mxCell>
        <mxCell id="jw04TF_Y39lqMl5QUkGy-11" value="// Store a primary app&#39;s data" style="rounded=0;whiteSpace=wrap;html=1;" vertex="1" parent="1">
          <mxGeometry y="1040" width="120" height="60" as="geometry" />
        </mxCell>
        <mxCell id="jw04TF_Y39lqMl5QUkGy-12" value="" style="endArrow=classic;html=1;rounded=0;exitX=0;exitY=0.5;exitDx=0;exitDy=0;exitPerimeter=0;entryX=1;entryY=0.5;entryDx=0;entryDy=0;" edge="1" parent="1" source="jw04TF_Y39lqMl5QUkGy-3" target="jw04TF_Y39lqMl5QUkGy-11">
          <mxGeometry width="50" height="50" relative="1" as="geometry">
            <mxPoint x="390" y="690" as="sourcePoint" />
            <mxPoint x="440" y="640" as="targetPoint" />
          </mxGeometry>
        </mxCell>
        <mxCell id="jw04TF_Y39lqMl5QUkGy-14" value="" style="endArrow=classic;html=1;rounded=0;exitX=0.5;exitY=1;exitDx=0;exitDy=0;exitPerimeter=0;entryX=0.5;entryY=0;entryDx=0;entryDy=0;" edge="1" parent="1" source="jw04TF_Y39lqMl5QUkGy-3" target="jw04TF_Y39lqMl5QUkGy-17">
          <mxGeometry width="50" height="50" relative="1" as="geometry">
            <mxPoint x="390" y="890" as="sourcePoint" />
            <mxPoint x="320" y="920" as="targetPoint" />
          </mxGeometry>
        </mxCell>
        <UserObject label="ERD picture&lt;br&gt;" link="https://github.com/Caophuoclong/chatapp/blob/master/Screenshot from 2022-10-15 14-58-32.png" id="jw04TF_Y39lqMl5QUkGy-17">
          <mxCell style="text;html=1;strokeColor=none;fillColor=none;whiteSpace=wrap;align=center;verticalAlign=middle;fontColor=#0000EE;fontStyle=4;" vertex="1" parent="1">
            <mxGeometry x="240" y="1110" width="60" height="40" as="geometry" />
          </mxCell>
        </UserObject>
        <mxCell id="jw04TF_Y39lqMl5QUkGy-18" value="" style="rounded=1;whiteSpace=wrap;html=1;" vertex="1" parent="1">
          <mxGeometry x="139" y="-80" width="550" height="360" as="geometry" />
        </mxCell>
        <mxCell id="jw04TF_Y39lqMl5QUkGy-19" value="Redux" style="shape=cylinder3;whiteSpace=wrap;html=1;boundedLbl=1;backgroundOutline=1;size=15;" vertex="1" parent="1">
          <mxGeometry x="570" y="30" width="60" height="80" as="geometry" />
        </mxCell>
        <mxCell id="jw04TF_Y39lqMl5QUkGy-20" value="&lt;h1&gt;Client&lt;/h1&gt;" style="text;html=1;strokeColor=none;fillColor=none;spacing=5;spacingTop=-20;whiteSpace=wrap;overflow=hidden;rounded=0;" vertex="1" parent="1">
          <mxGeometry x="184" y="-60" width="86" height="40" as="geometry" />
        </mxCell>
        <mxCell id="jw04TF_Y39lqMl5QUkGy-21" value="View" style="rounded=1;whiteSpace=wrap;html=1;" vertex="1" parent="1">
          <mxGeometry x="354" y="-30" width="120" height="60" as="geometry" />
        </mxCell>
        <mxCell id="jw04TF_Y39lqMl5QUkGy-22" value="Indexed&lt;br&gt;DB" style="shape=cylinder3;whiteSpace=wrap;html=1;boundedLbl=1;backgroundOutline=1;size=15;" vertex="1" parent="1">
          <mxGeometry x="210" y="30" width="60" height="80" as="geometry" />
        </mxCell>
        <mxCell id="jw04TF_Y39lqMl5QUkGy-23" value="AxiosClient" style="rounded=1;whiteSpace=wrap;html=1;" vertex="1" parent="1">
          <mxGeometry x="534" y="160" width="120" height="60" as="geometry" />
        </mxCell>
        <mxCell id="jw04TF_Y39lqMl5QUkGy-30" value="Websocket server" style="rounded=1;whiteSpace=wrap;html=1;" vertex="1" parent="1">
          <mxGeometry x="184" y="180" width="120" height="60" as="geometry" />
        </mxCell>
        <mxCell id="jw04TF_Y39lqMl5QUkGy-55" value="" style="rounded=1;whiteSpace=wrap;html=1;" vertex="1" parent="1">
          <mxGeometry x="40" y="585" width="760" height="385" as="geometry" />
        </mxCell>
        <mxCell id="jw04TF_Y39lqMl5QUkGy-56" value="RESTful API server" style="rounded=1;whiteSpace=wrap;html=1;" vertex="1" parent="1">
          <mxGeometry x="534" y="650" width="120" height="60" as="geometry" />
        </mxCell>
        <mxCell id="jw04TF_Y39lqMl5QUkGy-57" value="&lt;h1&gt;Server&lt;/h1&gt;" style="text;html=1;strokeColor=none;fillColor=none;spacing=5;spacingTop=-20;whiteSpace=wrap;overflow=hidden;rounded=0;" vertex="1" parent="1">
          <mxGeometry x="60" y="600" width="90" height="30" as="geometry" />
        </mxCell>
        <mxCell id="jw04TF_Y39lqMl5QUkGy-58" value="Websocket server" style="rounded=1;whiteSpace=wrap;html=1;" vertex="1" parent="1">
          <mxGeometry x="170" y="660" width="120" height="60" as="geometry" />
        </mxCell>
        <mxCell id="jw04TF_Y39lqMl5QUkGy-59" value="Controller" style="rounded=1;whiteSpace=wrap;html=1;" vertex="1" parent="1">
          <mxGeometry x="490" y="780" width="120" height="60" as="geometry" />
        </mxCell>
        <mxCell id="jw04TF_Y39lqMl5QUkGy-60" value="Model" style="rounded=1;whiteSpace=wrap;html=1;" vertex="1" parent="1">
          <mxGeometry x="300" y="810" width="120" height="60" as="geometry" />
        </mxCell>
        <mxCell id="jw04TF_Y39lqMl5QUkGy-61" value="" style="endArrow=classic;html=1;rounded=0;exitX=0.75;exitY=1;exitDx=0;exitDy=0;entryX=0.75;entryY=0;entryDx=0;entryDy=0;" edge="1" parent="1" source="jw04TF_Y39lqMl5QUkGy-30" target="jw04TF_Y39lqMl5QUkGy-58">
          <mxGeometry width="50" height="50" relative="1" as="geometry">
            <mxPoint x="390" y="790" as="sourcePoint" />
            <mxPoint x="440" y="740" as="targetPoint" />
          </mxGeometry>
        </mxCell>
        <mxCell id="jw04TF_Y39lqMl5QUkGy-66" value="Send message" style="edgeLabel;html=1;align=center;verticalAlign=middle;resizable=0;points=[];" vertex="1" connectable="0" parent="jw04TF_Y39lqMl5QUkGy-61">
          <mxGeometry x="0.0637" y="2" relative="1" as="geometry">
            <mxPoint as="offset" />
          </mxGeometry>
        </mxCell>
        <mxCell id="jw04TF_Y39lqMl5QUkGy-62" value="" style="endArrow=classic;html=1;rounded=0;exitX=0.25;exitY=0;exitDx=0;exitDy=0;entryX=0.25;entryY=1;entryDx=0;entryDy=0;" edge="1" parent="1" source="jw04TF_Y39lqMl5QUkGy-58" target="jw04TF_Y39lqMl5QUkGy-30">
          <mxGeometry width="50" height="50" relative="1" as="geometry">
            <mxPoint x="390" y="580" as="sourcePoint" />
            <mxPoint x="440" y="530" as="targetPoint" />
          </mxGeometry>
        </mxCell>
        <mxCell id="jw04TF_Y39lqMl5QUkGy-67" value="Reply message" style="edgeLabel;html=1;align=center;verticalAlign=middle;resizable=0;points=[];" vertex="1" connectable="0" parent="jw04TF_Y39lqMl5QUkGy-62">
          <mxGeometry x="-0.1409" relative="1" as="geometry">
            <mxPoint as="offset" />
          </mxGeometry>
        </mxCell>
        <mxCell id="jw04TF_Y39lqMl5QUkGy-63" value="HTTP Request" style="endArrow=classic;html=1;rounded=0;entryX=0.75;entryY=0;entryDx=0;entryDy=0;exitX=0.75;exitY=1;exitDx=0;exitDy=0;" edge="1" parent="1" source="jw04TF_Y39lqMl5QUkGy-23" target="jw04TF_Y39lqMl5QUkGy-56">
          <mxGeometry width="50" height="50" relative="1" as="geometry">
            <mxPoint x="390" y="580" as="sourcePoint" />
            <mxPoint x="440" y="530" as="targetPoint" />
          </mxGeometry>
        </mxCell>
        <mxCell id="jw04TF_Y39lqMl5QUkGy-64" value="" style="endArrow=classic;html=1;rounded=0;exitX=0.25;exitY=0;exitDx=0;exitDy=0;entryX=0.25;entryY=1;entryDx=0;entryDy=0;" edge="1" parent="1" source="jw04TF_Y39lqMl5QUkGy-56" target="jw04TF_Y39lqMl5QUkGy-23">
          <mxGeometry width="50" height="50" relative="1" as="geometry">
            <mxPoint x="390" y="500" as="sourcePoint" />
            <mxPoint x="440" y="450" as="targetPoint" />
          </mxGeometry>
        </mxCell>
        <mxCell id="jw04TF_Y39lqMl5QUkGy-65" value="HTTP Response" style="edgeLabel;html=1;align=center;verticalAlign=middle;resizable=0;points=[];" vertex="1" connectable="0" parent="jw04TF_Y39lqMl5QUkGy-64">
          <mxGeometry x="0.2419" y="-1" relative="1" as="geometry">
            <mxPoint as="offset" />
          </mxGeometry>
        </mxCell>
        <mxCell id="jw04TF_Y39lqMl5QUkGy-68" value="" style="endArrow=classic;html=1;rounded=0;entryX=0.25;entryY=1;entryDx=0;entryDy=0;exitX=0.25;exitY=0;exitDx=0;exitDy=0;" edge="1" parent="1" source="jw04TF_Y39lqMl5QUkGy-59" target="jw04TF_Y39lqMl5QUkGy-56">
          <mxGeometry width="50" height="50" relative="1" as="geometry">
            <mxPoint x="390" y="830" as="sourcePoint" />
            <mxPoint x="440" y="780" as="targetPoint" />
          </mxGeometry>
        </mxCell>
        <mxCell id="jw04TF_Y39lqMl5QUkGy-69" value="" style="endArrow=classic;html=1;rounded=0;entryX=0.692;entryY=-0.017;entryDx=0;entryDy=0;entryPerimeter=0;exitX=0.75;exitY=1;exitDx=0;exitDy=0;" edge="1" parent="1" source="jw04TF_Y39lqMl5QUkGy-56" target="jw04TF_Y39lqMl5QUkGy-59">
          <mxGeometry width="50" height="50" relative="1" as="geometry">
            <mxPoint x="390" y="830" as="sourcePoint" />
            <mxPoint x="440" y="780" as="targetPoint" />
          </mxGeometry>
        </mxCell>
        <mxCell id="jw04TF_Y39lqMl5QUkGy-70" value="" style="endArrow=classic;html=1;rounded=0;exitX=0.145;exitY=0;exitDx=0;exitDy=4.35;exitPerimeter=0;entryX=0;entryY=1;entryDx=0;entryDy=0;" edge="1" parent="1" source="jw04TF_Y39lqMl5QUkGy-3" target="jw04TF_Y39lqMl5QUkGy-60">
          <mxGeometry width="50" height="50" relative="1" as="geometry">
            <mxPoint x="390" y="830" as="sourcePoint" />
            <mxPoint x="440" y="780" as="targetPoint" />
          </mxGeometry>
        </mxCell>
        <mxCell id="jw04TF_Y39lqMl5QUkGy-71" value="" style="endArrow=classic;html=1;rounded=0;entryX=0.855;entryY=0;entryDx=0;entryDy=4.35;entryPerimeter=0;exitX=0.25;exitY=1;exitDx=0;exitDy=0;" edge="1" parent="1" source="jw04TF_Y39lqMl5QUkGy-60" target="jw04TF_Y39lqMl5QUkGy-3">
          <mxGeometry width="50" height="50" relative="1" as="geometry">
            <mxPoint x="390" y="830" as="sourcePoint" />
            <mxPoint x="440" y="780" as="targetPoint" />
          </mxGeometry>
        </mxCell>
        <mxCell id="jw04TF_Y39lqMl5QUkGy-72" value="" style="endArrow=classic;html=1;rounded=0;exitX=1;exitY=1;exitDx=0;exitDy=0;entryX=0.855;entryY=0;entryDx=0;entryDy=4.35;entryPerimeter=0;" edge="1" parent="1" source="jw04TF_Y39lqMl5QUkGy-60" target="jw04TF_Y39lqMl5QUkGy-4">
          <mxGeometry width="50" height="50" relative="1" as="geometry">
            <mxPoint x="390" y="830" as="sourcePoint" />
            <mxPoint x="440" y="780" as="targetPoint" />
          </mxGeometry>
        </mxCell>
        <mxCell id="jw04TF_Y39lqMl5QUkGy-73" value="" style="endArrow=classic;html=1;rounded=0;exitX=0.145;exitY=0;exitDx=0;exitDy=4.35;exitPerimeter=0;entryX=0.75;entryY=1;entryDx=0;entryDy=0;" edge="1" parent="1" source="jw04TF_Y39lqMl5QUkGy-4" target="jw04TF_Y39lqMl5QUkGy-60">
          <mxGeometry width="50" height="50" relative="1" as="geometry">
            <mxPoint x="390" y="830" as="sourcePoint" />
            <mxPoint x="440" y="780" as="targetPoint" />
          </mxGeometry>
        </mxCell>
        <mxCell id="jw04TF_Y39lqMl5QUkGy-74" value="" style="endArrow=classic;html=1;rounded=0;exitX=0.75;exitY=1;exitDx=0;exitDy=0;entryX=0.75;entryY=0;entryDx=0;entryDy=0;" edge="1" parent="1" source="jw04TF_Y39lqMl5QUkGy-58" target="jw04TF_Y39lqMl5QUkGy-60">
          <mxGeometry width="50" height="50" relative="1" as="geometry">
            <mxPoint x="390" y="830" as="sourcePoint" />
            <mxPoint x="440" y="780" as="targetPoint" />
          </mxGeometry>
        </mxCell>
        <mxCell id="jw04TF_Y39lqMl5QUkGy-75" value="" style="endArrow=classic;html=1;rounded=0;exitX=0.25;exitY=0;exitDx=0;exitDy=0;entryX=0.442;entryY=1;entryDx=0;entryDy=0;entryPerimeter=0;" edge="1" parent="1" source="jw04TF_Y39lqMl5QUkGy-60" target="jw04TF_Y39lqMl5QUkGy-58">
          <mxGeometry width="50" height="50" relative="1" as="geometry">
            <mxPoint x="390" y="830" as="sourcePoint" />
            <mxPoint x="440" y="780" as="targetPoint" />
          </mxGeometry>
        </mxCell>
        <mxCell id="jw04TF_Y39lqMl5QUkGy-76" value="" style="endArrow=classic;html=1;rounded=0;entryX=0;entryY=0.25;entryDx=0;entryDy=0;exitX=1;exitY=0.25;exitDx=0;exitDy=0;" edge="1" parent="1" source="jw04TF_Y39lqMl5QUkGy-60" target="jw04TF_Y39lqMl5QUkGy-59">
          <mxGeometry width="50" height="50" relative="1" as="geometry">
            <mxPoint x="390" y="830" as="sourcePoint" />
            <mxPoint x="440" y="780" as="targetPoint" />
          </mxGeometry>
        </mxCell>
        <mxCell id="jw04TF_Y39lqMl5QUkGy-77" value="" style="endArrow=classic;html=1;rounded=0;entryX=1;entryY=0.75;entryDx=0;entryDy=0;exitX=0;exitY=0.75;exitDx=0;exitDy=0;" edge="1" parent="1" source="jw04TF_Y39lqMl5QUkGy-59" target="jw04TF_Y39lqMl5QUkGy-60">
          <mxGeometry width="50" height="50" relative="1" as="geometry">
            <mxPoint x="390" y="830" as="sourcePoint" />
            <mxPoint x="440" y="780" as="targetPoint" />
          </mxGeometry>
        </mxCell>
        <mxCell id="jw04TF_Y39lqMl5QUkGy-78" value="" style="endArrow=classic;html=1;rounded=0;exitX=1;exitY=0;exitDx=0;exitDy=27.5;exitPerimeter=0;entryX=0;entryY=0;entryDx=0;entryDy=27.5;entryPerimeter=0;" edge="1" parent="1" source="jw04TF_Y39lqMl5QUkGy-22" target="jw04TF_Y39lqMl5QUkGy-19">
          <mxGeometry width="50" height="50" relative="1" as="geometry">
            <mxPoint x="390" y="320" as="sourcePoint" />
            <mxPoint x="440" y="270" as="targetPoint" />
          </mxGeometry>
        </mxCell>
        <mxCell id="jw04TF_Y39lqMl5QUkGy-91" value="Request data" style="edgeLabel;html=1;align=center;verticalAlign=middle;resizable=0;points=[];" vertex="1" connectable="0" parent="jw04TF_Y39lqMl5QUkGy-78">
          <mxGeometry x="0.1533" y="-2" relative="1" as="geometry">
            <mxPoint y="1" as="offset" />
          </mxGeometry>
        </mxCell>
        <mxCell id="jw04TF_Y39lqMl5QUkGy-81" value="" style="endArrow=classic;html=1;rounded=0;entryX=0;entryY=0.5;entryDx=0;entryDy=0;entryPerimeter=0;exitX=0;exitY=0.5;exitDx=0;exitDy=0;" edge="1" parent="1" source="jw04TF_Y39lqMl5QUkGy-30" target="jw04TF_Y39lqMl5QUkGy-22">
          <mxGeometry width="50" height="50" relative="1" as="geometry">
            <mxPoint x="390" y="320" as="sourcePoint" />
            <mxPoint x="440" y="270" as="targetPoint" />
            <Array as="points">
              <mxPoint x="150" y="120" />
            </Array>
          </mxGeometry>
        </mxCell>
        <mxCell id="jw04TF_Y39lqMl5QUkGy-90" value="Store data" style="edgeLabel;html=1;align=center;verticalAlign=middle;resizable=0;points=[];" vertex="1" connectable="0" parent="jw04TF_Y39lqMl5QUkGy-81">
          <mxGeometry x="0.289" y="2" relative="1" as="geometry">
            <mxPoint as="offset" />
          </mxGeometry>
        </mxCell>
        <mxCell id="jw04TF_Y39lqMl5QUkGy-83" value="" style="endArrow=classic;html=1;rounded=0;entryX=1;entryY=0.75;entryDx=0;entryDy=0;exitX=0;exitY=0;exitDx=0;exitDy=15;exitPerimeter=0;" edge="1" parent="1" source="jw04TF_Y39lqMl5QUkGy-19" target="jw04TF_Y39lqMl5QUkGy-21">
          <mxGeometry width="50" height="50" relative="1" as="geometry">
            <mxPoint x="390" y="320" as="sourcePoint" />
            <mxPoint x="440" y="270" as="targetPoint" />
          </mxGeometry>
        </mxCell>
        <mxCell id="jw04TF_Y39lqMl5QUkGy-84" value="" style="endArrow=classic;html=1;rounded=0;entryX=1;entryY=1;entryDx=0;entryDy=-15;entryPerimeter=0;exitX=0;exitY=0;exitDx=0;exitDy=0;" edge="1" parent="1" source="jw04TF_Y39lqMl5QUkGy-23" target="jw04TF_Y39lqMl5QUkGy-22">
          <mxGeometry width="50" height="50" relative="1" as="geometry">
            <mxPoint x="390" y="320" as="sourcePoint" />
            <mxPoint x="440" y="270" as="targetPoint" />
          </mxGeometry>
        </mxCell>
        <mxCell id="jw04TF_Y39lqMl5QUkGy-89" value="Store data" style="edgeLabel;html=1;align=center;verticalAlign=middle;resizable=0;points=[];" vertex="1" connectable="0" parent="jw04TF_Y39lqMl5QUkGy-84">
          <mxGeometry x="0.1793" y="1" relative="1" as="geometry">
            <mxPoint as="offset" />
          </mxGeometry>
        </mxCell>
        <mxCell id="jw04TF_Y39lqMl5QUkGy-85" value="" style="endArrow=classic;html=1;rounded=0;entryX=0.5;entryY=0;entryDx=0;entryDy=0;entryPerimeter=0;exitX=1;exitY=0.25;exitDx=0;exitDy=0;" edge="1" parent="1" source="jw04TF_Y39lqMl5QUkGy-21" target="jw04TF_Y39lqMl5QUkGy-19">
          <mxGeometry width="50" height="50" relative="1" as="geometry">
            <mxPoint x="390" y="320" as="sourcePoint" />
            <mxPoint x="440" y="270" as="targetPoint" />
          </mxGeometry>
        </mxCell>
        <mxCell id="jw04TF_Y39lqMl5QUkGy-86" value="Request new data from server" style="endArrow=classic;html=1;rounded=0;entryX=0.75;entryY=0;entryDx=0;entryDy=0;exitX=0.5;exitY=1;exitDx=0;exitDy=0;exitPerimeter=0;" edge="1" parent="1" source="jw04TF_Y39lqMl5QUkGy-19" target="jw04TF_Y39lqMl5QUkGy-23">
          <mxGeometry width="50" height="50" relative="1" as="geometry">
            <mxPoint x="390" y="320" as="sourcePoint" />
            <mxPoint x="440" y="270" as="targetPoint" />
          </mxGeometry>
        </mxCell>
        <mxCell id="jw04TF_Y39lqMl5QUkGy-87" value="" style="endArrow=classic;html=1;rounded=0;entryX=1;entryY=0;entryDx=0;entryDy=0;exitX=0;exitY=1;exitDx=0;exitDy=-15;exitPerimeter=0;" edge="1" parent="1" source="jw04TF_Y39lqMl5QUkGy-19" target="jw04TF_Y39lqMl5QUkGy-30">
          <mxGeometry width="50" height="50" relative="1" as="geometry">
            <mxPoint x="390" y="320" as="sourcePoint" />
            <mxPoint x="440" y="270" as="targetPoint" />
          </mxGeometry>
        </mxCell>
        <mxCell id="jw04TF_Y39lqMl5QUkGy-93" value="Request new data from server" style="edgeLabel;html=1;align=center;verticalAlign=middle;resizable=0;points=[];" vertex="1" connectable="0" parent="jw04TF_Y39lqMl5QUkGy-87">
          <mxGeometry x="-0.4788" y="-2" relative="1" as="geometry">
            <mxPoint as="offset" />
          </mxGeometry>
        </mxCell>
        <mxCell id="jw04TF_Y39lqMl5QUkGy-88" value="" style="endArrow=classic;html=1;rounded=0;entryX=1;entryY=0.5;entryDx=0;entryDy=0;entryPerimeter=0;exitX=0;exitY=0.5;exitDx=0;exitDy=0;exitPerimeter=0;" edge="1" parent="1" source="jw04TF_Y39lqMl5QUkGy-19" target="jw04TF_Y39lqMl5QUkGy-22">
          <mxGeometry width="50" height="50" relative="1" as="geometry">
            <mxPoint x="390" y="250" as="sourcePoint" />
            <mxPoint x="440" y="200" as="targetPoint" />
          </mxGeometry>
        </mxCell>
        <mxCell id="jw04TF_Y39lqMl5QUkGy-92" value="Response data" style="edgeLabel;html=1;align=center;verticalAlign=middle;resizable=0;points=[];" vertex="1" connectable="0" parent="jw04TF_Y39lqMl5QUkGy-88">
          <mxGeometry x="0.3267" y="1" relative="1" as="geometry">
            <mxPoint as="offset" />
          </mxGeometry>
        </mxCell>
      </root>
    </mxGraphModel>
  </diagram>
</mxfile>
